<?xml version="1.0" encoding="UTF-8"?><svg id="Layer_1" xmlns="http://www.w3.org/2000/svg" viewBox="0 0 343 230.53"><defs><style>.cls-1{fill:#fffb31;}</style></defs><path class="cls-1" d="M276.13,85.37c9.77,4.34,22.82,10.12,35.67,15.78,14.7,6.47,31.19-4.29,31.19-20.35v-24.83c0-30.91-25.06-55.97-55.97-55.97H55.97C25.06,0,0,25.06,0,55.97v13.46c0,31.5,19.47,59.72,48.92,70.91l22.3,8.47c1.98,.75,1.14,3.72-.94,3.33l-53.81-10.22c-8.55-1.62-16.46,4.93-16.46,13.63v19.01c0,30.91,25.06,55.97,55.97,55.97h231.05c30.91,0,55.97-25.06,55.97-55.97h0c0-26.02-13.08-50.31-34.81-64.63l-33.44-22.04c-1.48-.97-.24-3.24,1.37-2.52Z"/></svg>