<?xml version="1.0" encoding="UTF-8"?><svg id="Layer_1" xmlns="http://www.w3.org/2000/svg" viewBox="0 0 1440.5 750"><defs><style>.cls-1{fill:#fffb31;}</style></defs><path class="cls-1" d="M1222.95,277.75c31.78,14.11,74.24,32.92,116.06,51.34,47.81,21.06,101.49-13.95,101.49-66.19v-80.79c0-100.57-81.53-182.11-182.11-182.11H182.11C81.53,0,0,81.53,0,182.11v43.79c0,102.48,63.34,194.29,159.14,230.68l72.55,27.56c6.44,2.45,3.71,12.11-3.06,10.82l-175.07-33.25c-27.81-5.28-53.56,16.04-53.56,44.34v61.84c0,100.57,81.53,182.11,182.11,182.11H1258.4c100.57,0,182.11-81.53,182.11-182.11h0c0-84.67-42.55-163.67-113.24-210.26l-108.78-71.69c-4.8-3.17-.78-10.53,4.47-8.2Z"/></svg>