<svg width="600" height="600" viewBox="0 0 600 600" fill="none" xmlns="http://www.w3.org/2000/svg">
    <g clip-path="url(#z41ai6069a)">
        <path d="M600 95.59V74.02c0-40.888-33.153-74.04-74.041-74.04H84.846C37.982 0 0 37.982 0 84.846v224.66h.389C0 402.558 150.066 430.39 218.868 430.39H74.041C33.153 430.39 0 463.543 0 504.41v21.57c0 40.888 33.153 74.041 74.04 74.041h412.75c62.519 0 113.21-50.691 113.21-113.21V309.506h-.389c.225-3.131.389-6.303.389-9.496 0-71.994-73.959-95.057-145.974-95.057 0 0 145.974-24.128 145.974-109.343v-.02z" fill="#FFFB31"/>
    </g>
    <defs>
        <clipPath id="z41ai6069a">
            <path fill="#fff" d="M0 0h600v600H0z"/>
        </clipPath>
    </defs>
</svg>
