<svg width="140" height="30" viewBox="0 0 140 30" fill="none" xmlns="http://www.w3.org/2000/svg">
    <g clip-path="url(#qklalkwe7a)" fill="#191914">
        <path d="m18.176 12.257-5.944-1.14c-4.542-.904-5.157-2.238-5.157-3.44 0-2.202 2.28-3.457 6.26-3.457 3.982 0 6.967 1.264 10.134 3.159l.642.386 2.036-3.896-.552-.324C22.791 1.895 18.864 0 13.454 0c-3.375 0-6.207.746-8.18 2.15-1.99 1.421-3.048 3.422-3.048 5.8 0 3.974 2.786 6.378 8.758 7.554l6.152 1.21c3.845.746 4.632 2.001 4.632 3.66 0 2.684-2.714 4.29-7.274 4.29-4.053 0-7.428-1.386-10.956-4.492l-.534-.474L0 23.243l.47.43c2.145 1.965 6.831 5.264 14.033 5.264 7.202 0 12.196-3.413 12.196-8.897 0-4.124-2.787-6.668-8.523-7.783zM123.769 24.567v-8.045h13.571v-4.186h-13.571V5.028h16.132V.878h-20.936v27.884H140v-4.195h-16.231zM64.454 24.567V5.027h16.132V.878H59.65v27.884h21.035v-4.194h-16.23z"/>
        <path d="m115.916 25.305-.263-.202c.127-.158.1-.237-.054-.474.127-.263-.072-.413-.217-.509a.392.392 0 0 1-.118-.14l.245-.369.054-.105-.109-.08s.009-.052 0-.087c-.027-.105-.135-.14-.235-.167a2.053 2.053 0 0 1-.407-.157 1.315 1.315 0 0 0-.163-.07l-.09-.036-.064.08-.054.078-.018.026h-.009l.253-.342-.326.07a2.308 2.308 0 0 0-.117.027.667.667 0 0 0-.19.052c-.244.115-.489.229-.724.343-.244.114-.479.228-.724.342-.199.096-.407.184-.606.272-.326.149-.66.298-.986.456-.145.07-.29.158-.434.237a6.512 6.512 0 0 1-.48.263c-.344.158-.715.29-1.067.421l-.299.114.371-.92c.036-.097.072-.185.108-.282.082-.21.163-.42.263-.623.108-.219.217-.447.335-.666.108-.211.217-.422.316-.632.109-.22.199-.439.299-.658.063-.15.127-.299.199-.448.036-.07.072-.14.118-.21.108-.167.226-.36.208-.614a.15.15 0 0 1 .036-.062l.036-.061c.018-.027.027-.053.045-.088.027-.053.054-.097.073-.15a1.99 1.99 0 0 0 .09-.245c.054-.158.109-.316.199-.447.063-.106.118-.21.163-.316.072-.158.145-.316.262-.439.163-.175.245-.403.317-.614.054-.15.1-.29.172-.413.154-.254.253-.535.353-.816.027-.07.054-.149.081-.219.226-.614.453-1.237.67-1.851.027-.08.045-.158.072-.237.018-.07.036-.15.063-.22.064-.184.127-.36.199-.535.082-.228.172-.456.254-.684.099-.29.19-.588.28-.886l.073-.237c.018-.053.027-.105.045-.158.018-.062.027-.114.045-.176.036-.096.072-.184.109-.28.063-.158.126-.316.172-.492.081-.29.144-.588.208-.877l.036-.184c.018-.08.027-.158.036-.228a2.35 2.35 0 0 1 .045-.246c0-.035.027-.07.046-.105a.65.65 0 0 0 .063-.158c.054-.228.099-.465.154-.694l.099-.473c.027-.15.064-.299.1-.448a.329.329 0 0 1 .054-.114.544.544 0 0 0 .081-.21c.019-.106.019-.211.019-.308 0-.149 0-.289.045-.412.099-.29.054-.553 0-.807-.009-.07-.027-.14-.036-.21-.055-.448-.181-.878-.308-1.273a30.635 30.635 0 0 0-.434-1.246c-.055-.149-.109-.29-.154-.439-.154-.438-.516-.658-.833-.85-.072-.045-.144-.088-.208-.132-.217-.14-.47-.202-.714-.255l-.227-.052c-.09-.027-.171-.018-.253-.01h-.117c-.091 0-.172-.017-.263-.025-.172-.018-.353-.044-.525-.027-.452.035-.886.07-1.311.167-.715.175-1.421.404-2.09.614-.163.053-.308.14-.444.22L107.61 2a4.716 4.716 0 0 1-.298.149c-.199.096-.417.202-.616.324-.126.07-.235.167-.343.255-.091.07-.172.14-.263.202-.289.193-.579.377-.877.552-.172.106-.335.21-.507.325a.34.34 0 0 0-.081.079c0 .009-.019.018-.028.026a.604.604 0 0 1-.126.097.16.16 0 0 0-.109.044c-.289.21-.579.43-.859.649a.306.306 0 0 0-.091.105c-.018.027-.036.044-.045.053-.072.053-.154.105-.235.167a3.046 3.046 0 0 0-.344.254c-.262.22-.543.456-.869.763-.081.08-.153.158-.226.237-.063.07-.117.132-.19.202-.045.044-.081.088-.126.132-.1.114-.209.228-.308.254-.208.053-.326.176-.434.28-.018.018-.037.045-.064.062a23.3 23.3 0 0 0-.904.94c-.417.447-.833.903-1.249 1.36a.44.44 0 0 0-.09.148c-.019.035-.037.07-.055.088-.036.035-.072.07-.126.105-.046.035-.082.07-.127.106-.09.096-.19.193-.28.28.017-.052.045-.114.063-.166.054-.132.117-.272.172-.404.09-.22.19-.43.271-.65.045-.104.073-.219.1-.333.027-.105.054-.21.09-.307.018-.052.045-.096.063-.14.073-.15.163-.325.109-.527 0 0 .009-.026.018-.035 0-.017.018-.035.018-.043.1-.272.217-.588.036-.913V6.616c0-.053 0-.106-.009-.158 0-.106-.018-.202-.018-.307v-.106l.1.176.036-.395a6.572 6.572 0 0 0 0-1.035c0-.123-.063-.237-.118-.342l-.036-.062c-.063-.123-.108-.193-.081-.29.1-.394-.064-.719-.227-.99-.208-.343-.56-.492-.868-.633-.045-.017-.1-.044-.145-.061-.325-.15-.696-.184-1.031-.193-1.005-.053-1.963.132-2.778.307-.461.105-.923.237-1.366.369l-.434.122c-.353.106-.715.21-1.068.343-.66.245-1.32.508-1.954.78-.344.15-7.727 3.73-8.043 3.896-.28.14-4.488 1.992-8.56 3.782-3.862 1.693-7.517 3.299-7.906 3.492-.67.325-7.148 3.483-8.053 3.983l-1.818 1.027c-.498.28-.986.561-1.484.842-.832.465-1.674.93-2.506 1.395l-.878.483c-.063.035-.117.07-.18.105-.127.08-.254.158-.363.176-.226.026-.37.149-.497.245-.027.027-.055.044-.09.07 0 0-.028.01-.037.018l-.036.018c-.081.026-.154.061-.235.087a6.24 6.24 0 0 0-.516.202c-.308.14-.615.28-.923.43-.461.21-.932.439-1.402.64a33.84 33.84 0 0 1-1.936.755c-.1.035-.218.053-.335.07-.072.01-.145.018-.217.035-.19.035-.39.08-.58.123-.352.08-.723.15-1.085.22-.317.052-.642.087-.95.122l-.217.027c-.371.044-.706.07-1.032.096h-.226c-.108 0-.217 0-.335.009-.904.132-1.71.167-2.46.105-.127-.008-.254-.035-.39-.052-.063-.01-.126-.027-.19-.035l-.298-.044c-.244-.035-.498-.07-.742-.123-.072-.009-.163-.026-.244 0l-.082-.035s-.09-.044-.135-.062l-.235-.096c-.1-.044-.2-.088-.3-.123-.044-.018-.053-.035-.062-.044a1.947 1.947 0 0 1-.109-.14c-.072-.088-.136-.184-.235-.264-.489-.412-.76-.894-.815-1.474 0-.026-.018-.096-.126-.114h-.018c-.027-.043-.055-.087-.073-.131.01 0 .027 0 .037-.009l.1-.035-.019-.105a1.459 1.459 0 0 0-.09-.281c-.055-.15-.118-.29-.1-.456.018-.14-.01-.29-.036-.422-.018-.087-.036-.166-.036-.245v-.746a6.592 6.592 0 0 1 .298-2.413c.027-.079.01-.158 0-.22v-.043c-.036-.167-.054-.263.055-.377.117-.132.19-.299.253-.465.027-.07.054-.132.09-.193l.055-.106-.181-.096.018-.044c.117-.342.235-.702.38-1.035.081-.185.172-.351.28-.527.163-.29.335-.579.425-.93.055-.237.209-.412.371-.605.172-.202.344-.404.426-.694l.063-.21v-.018l.081-.105c.073-.105.145-.21.2-.333.072-.185.216-.325.298-.325h.262l-.199-.237.796-.991.136-.027c.244-.044.353-.21.444-.342.036-.053.063-.096.099-.14l.145-.15.126-.07-.036-.017.217-.22-.325.15-.037-.027h.01c.09-.096.18-.184.27-.254.01 0 .046-.018.073-.018.055-.017.127-.026.181-.079.19-.175.344-.342.48-.509.136-.175.271-.35.398-.526.063-.079.117-.167.18-.246.028-.044.064-.087.091-.14.045-.07.1-.167.145-.184.19-.062.308-.193.407-.307.027-.027.054-.062.082-.088l.244-.263c.163-.176.316-.343.488-.474.109-.08.218-.158.326-.228.262-.176.525-.351.742-.614l.027-.036c.082-.096.163-.201.253-.236a.679.679 0 0 0 .335-.334c.018-.044.055-.07.073-.088.09-.043.19-.087.29-.131.153-.07.307-.14.451-.22.163-.096.326-.201.49-.307.171-.114.352-.228.533-.333.199-.105.407-.202.615-.29l.299-.131c.036-.018.054-.035.09-.07l.045-.044 1.131-.237v-.22l-.045-.026h.018c.136-.079.254-.14.38-.167.136-.035.272-.043.425-.052.073 0 .136 0 .2-.018h.099l.018-.14a.65.65 0 0 1 .163-.044c.127-.018.262-.018.398-.026h.027c.018.07.054.122.109.158.1.061.217.043.28.026v.026l-.054.132.923.193.063-.176c.118.027.235.062.353.088l.217.053s.027.009.045.017c.064.027.145.053.217.01.082-.045.109-.027.218.07.054.043.108.105.18.13a.256.256 0 0 0 .1.141c.127.08.262.14.39.193a.445.445 0 0 1 .099.062c.09.07.244.184.434.079 0 0 .018.087.063.123.055.043.109.087.154.14.154.132.308.272.489.377.072.044.1.08.1.158l-.3-.167.028.237c.009.114.063.21.126.299.127.175.236.342.2.535l-.046.237c-.09.474-.19.956-.344 1.404a8.135 8.135 0 0 1-1.04 1.974c-.244.333-.543.71-.977.947-.082.044-.127.167-.127.246 0 .07.018.14.036.22l.064.298.117-.097v.053l.507.035-.072.535.135-.061c.027.096.1.158.154.21.09.08.1.097.045.185l-.036.061h-.271l.208.105-.082.132.217-.08.154.071s.082.061.09.123a.182.182 0 0 1-.035.167l-.1.114.443.228.027-.018s0 .08.028.123a.229.229 0 0 0 .19.132c.054 0 .117.008.18.017h.055l.045.193.127-.043s.09-.027.126-.036c.118-.026.245-.052.344-.14.244-.21.47-.439.688-.667l.1-.105a.352.352 0 0 0 .117-.28c0-.036-.018-.062-.036-.089.045-.087.09-.166.136-.254.135-.246.27-.491.389-.755l.108-.237c.208-.465.434-.947.534-1.474 0 0 .009-.017.018-.026.01-.018.027-.035.036-.053.01-.026.027-.043.036-.07a.58.58 0 0 0 .09-.228c.037-.298.055-.605.073-.895v-.193a1.97 1.97 0 0 0 .018-.518 8.372 8.372 0 0 0-.172-1.079 7.705 7.705 0 0 0-.28-.991c-.127-.36-.28-.711-.416-1.01-.1-.219-.208-.43-.317-.64l-.072-.14a3.202 3.202 0 0 0-.172-.298l-.073-.132c-.027-.053-.054-.097-.081-.15-.063-.122-.127-.254-.226-.359a5.533 5.533 0 0 0-.697-.614c-.108-.088-.217-.184-.335-.272-.334-.28-.687-.562-1.058-.807-.66-.43-1.412-.65-2.135-.834a9.224 9.224 0 0 0-1.032-.193 6.344 6.344 0 0 0-1.728.035c-.072.009-.136.009-.208.018-.1 0-.208 0-.316.035l-.281.07c-.461.114-.932.228-1.384.386-.643.22-1.385.509-2.054.974-.181.132-.362.254-.552.377-.416.29-.841.58-1.258.886-.298.22-.57.474-.832.729l-.036.035a.708.708 0 0 0-.136.149c-.1.114-.18.21-.325.263-.181.07-.317.228-.453.377a3.203 3.203 0 0 1-.163.176l-.09.114.036.026-.063.062c-.082.079-.163.158-.272.193-.217.07-.37.263-.524.447-.055.062-.1.123-.154.176-.19.202-.38.412-.57.623-.127.131-.245.272-.371.403-.045.044-.082.088-.127.132-.063.061-.127.123-.19.193-.244.29-.48.579-.715.877l-.135.167c-.127.15-.245.298-.371.448-.29.35-.597.71-.869 1.088-.398.543-.76 1.14-1.067 1.649l-.145.228c-.272.448-.561.913-.77 1.413-.117.272-.235.535-.361.807a21.25 21.25 0 0 0-.67 1.597c-.208.588-.343 1.193-.47 1.781l-.072.325c-.055.237-.11.5-.127.754-.036.43-.054.86-.064 1.264 0 .588 0 1.07.019 1.518.018.412.045.895.126 1.36.064.394.172.772.326 1.149.145.369.335.755.57 1.132.127.202.28.386.425.561.064.07.127.15.181.22l.036.044c.046.061.1.122.163.184.235.202.48.403.724.605l.299.246c.144.123.29.246.443.36a.692.692 0 0 0 .163.079c.027.009.09.035.1.052.162.29.406.483.633.676l.072.061c.145.123.298.22.47.325.082.053.163.096.245.158l.307.202-.018-.044s.082.044.118.053l.108.052c.019.009.028.018.046.026.009 0 .027.018.036.018.344.21.66.316.977.334.054 0 .1 0 .154.008.054 0 .108 0 .154.009h.208c.126.018.253.018.38.026.081 0 .163.018.235.035l.118.018.126-.018.018-.096.932.026-.081-.07.081.018c.181.035.362.079.552.087.154.01.317 0 .47 0 .118 0 .236-.017.362-.008.064 0 .127 0 .19-.01.181-.017.272-.025.362.106.064.097.19.079.299.061.045 0 .081-.017.108-.026.018 0 .028-.009.046-.017.117-.027.235-.044.352-.062l.145-.026.055.017c.1.035.253.053.434.053l.145.105-.028-.105c.326 0 .733-.053 1.14-.123l.028.167.425-.079.715-.132c.09-.017.171-.043.262-.07.081-.026.163-.044.244-.061a.623.623 0 0 1 .181 0h.226v-.105c.127-.01.254-.044.38-.07.172-.045.335-.08.498-.07.208.017.407-.071.597-.141.072-.035.154-.062.253-.097a2.55 2.55 0 0 0 .236-.088c.054-.026.1-.07.153-.105.019-.017.046-.035.064-.052l.488-.369-.913.228s.045-.035.072-.044a.307.307 0 0 1 .108-.044h.037c.18-.079.362-.14.543-.201l.325-.114-.054-.167c.172-.07.326-.123.498-.053.081.035.172-.009.208-.026.262-.15.551-.228.886-.246.227-.009.48-.245.516-.43l.027-.131-.136-.018H49a.302.302 0 0 0 .055-.123c.027 0 .054.027.09.044l.073.035.063-.044s.064-.044.09-.07c.028-.026.064-.044.073-.053.172-.06.353-.114.525-.166.154-.053.317-.097.47-.15a.581.581 0 0 0 .127-.07c.01 0 .027-.017.045-.026.19.07.326-.017.435-.088.054-.035.108-.07.153-.07h.019l-.073.21.58-.166-.245.167.18.105s.1.07.182.035l.389-.193c1.42-.71 2.886-1.448 4.162-2.483l.063-.053-.118-.386c.064-.026.136-.052.2-.087.153-.088.307-.185.452-.281.244-.15.497-.307.75-.448.317-.184.661-.368 1.023-.526.217-.097.453-.176.697-.255h.027l.072.176.245-.053c.108-.017.226-.044.334-.07.136-.035.272-.079.39-.158a.692.692 0 0 1 .217-.079c.144-.035.325-.079.443-.254.163.114.307.035.389-.009.018-.009.027-.018.045-.026l1.448-.694c.09-.043.19-.087.28-.14.118-.061.235-.114.353-.175.145-.07.29-.132.443-.202.1-.044.2-.088.317-.15.081-.034.163-.078.244-.122l.19-.132c.118-.079.226-.158.344-.202.036-.008.063-.026.1-.035.153-.052.316-.114.452-.272l.488-.158h.055c.081 0 .271-.017.298-.254.01-.018.073-.053.109-.079l.036-.026.018.017 1.15-.579c.108-.053.216-.105.325-.167.108-.061.217-.14.326-.21.208-.14.407-.281.624-.342.271-.08.452-.246.624-.413a4.37 4.37 0 0 1 .217-.193c.163-.123.362-.193.643-.228h.036s.063-.035.09-.053l.037-.017c.19.114.362.035.48-.026.026-.01.053-.027.08-.035.227-.088.453-.194.661-.29.081-.044.172-.079.253-.123l.082-.053v-.026c.126.061.335.044.452-.009.109-.052.127-.123.136-.166 0-.035.009-.053.009-.053h.081c.2.035.362-.044.507-.123a.63.63 0 0 1 .29-.096l.09-.018.027-.079c.082-.202.299-.202.38-.193.308.026.534-.114.733-.237l.027-.017c.326-.193.624-.386.995-.439.1-.018.181-.053.272-.079.036-.018.072-.026.1-.035l.09-.053.063-.035c.054.018.1 0 .109-.017.226-.15.48-.272.723-.395.326-.167.652-.334.96-.562h.036l.036-.052.036-.027c.045 0 .1 0 .154-.035.063-.035.126-.079.18-.123.055-.035.11-.079.164-.105.253-.132.506-.263.778-.386.38-.175.76-.351 1.149-.518.144-.061.28-.114.425-.175.307-.123.633-.246.932-.43a.614.614 0 0 1 .072-.026c.073-.027.172-.053.2-.14.026-.08.063-.089.162-.106a.33.33 0 0 0 .09-.018c.046-.008.1-.008.154-.017.181 0 .489-.018.543-.404 0 0 .018-.017.045-.026.037-.018.073-.044.109-.07.136-.097.172-.106.253-.044l.055.044.072-.027c.118-.043.235-.079.362-.123.271-.087.543-.184.805-.298.39-.167.778-.36 1.158-.553.163-.079.326-.166.498-.245l.199-.097-.045-.026.217-.08c.452-.192.895-.394 1.348-.596a4.44 4.44 0 0 0 .506-.263c.064-.035.127-.079.181-.114.1-.07.19-.132.29-.167.081-.026.154-.044.235-.07.2-.053.407-.105.615-.263.181-.132.407-.21.643-.28.154-.054.316-.106.47-.176.272-.123.552-.202.85-.29.145-.035.281-.079.426-.123.054-.017.09-.061.127-.105l.108-.097-.117-.087s-.019-.01-.019-.018c-.036-.035-.1-.088-.18-.07a.27.27 0 0 0-.082.018l-.027-.106c.28-.114.57-.175.85-.228.127-.026.245-.053.371-.079.326-.079.66-.14.986-.202l.19-.035c.181-.035.353-.061.534-.087l.163-.027c.064-.009.127-.009.19-.017.154-.01.317-.018.462-.097.108-.061.19-.044.334 0l.109.026v.018a2.122 2.122 0 0 0-.172.307l-.38.869c-.172.386-.335.772-.507 1.15a30.94 30.94 0 0 1-.696 1.447c-.136.272-.28.544-.435.807-.1.193-.208.377-.307.57-.127.237-.245.483-.371.72-.082.149-.154.307-.235.456l-.308.597c-.163.307-.317.623-.48.93a8.212 8.212 0 0 0-.235.491 21.751 21.751 0 0 1-.498.983c-.108.202-.216.404-.316.614l-.217.474c-.073.166-.145.333-.226.5-.362.728-.76 1.51-1.168 2.264-.153.28-.316.57-.479.842l-.353.605c-.09.167-.172.343-.253.518l-.054.123c-.037.079-.073.167-.109.246a3.893 3.893 0 0 1-.199.43c-.145.236-.317.465-.48.684l-.126.175c-.073.097-.145.185-.217.281l-.163.21-.018.027c-.055.061-.118.14-.1.237.018.105-.027.167-.108.272-.019.026-.037.044-.055.07-.045.062-.09.123-.144.184-.09.106-.181.22-.254.351-.244.474-.47.966-.696 1.44l-.082.175a.994.994 0 0 0-.09.333c-.037.307-.073.614-.1.922 0 .052.01.096.027.131 0 0 0 .018.01.026l.045.123.126-.052s.036.035.055.043c.036.044.09.097.162.114.19.053.272.159.29.378 0 .088.063.175.154.228.072.044.163.07.253.053a.654.654 0 0 1-.018.131l-.027.167.208.053c.072.017.127.035.18.035h.037c0 .008 0 .017-.009.026a.355.355 0 0 0-.063.272c.018.079.072.14.153.184a.262.262 0 0 1 .037.027s0 .026-.01.079c-.036.157-.072.315-.099.482l-.081.413.226-.062c.226-.061.48-.131.615-.36.045.044.1.08.172.08.108 0 .19-.088.208-.123.1-.123.19-.255.262-.404l.815-1.632c.072-.14.135-.29.199-.43.063-.15.126-.29.199-.43.126-.254.253-.5.38-.755.072-.131.136-.272.208-.403a.594.594 0 0 0 .045-.114l.054-.15-.108-.06c.045-.115.09-.22.127-.334.018-.035.027-.08.036-.123 0-.026.018-.07.027-.088.235-.114.298-.324.325-.5.01 0 .019 0 .028-.009.235-.105.515-.561.651-.93l.082-.22-.48.133-.063-.264c.018-.052.036-.105.045-.158.036-.123.072-.237.118-.342.08-.175.18-.395.316-.474.172-.105.263-.219.29-.386l.09-.131c.118-.167.235-.334.344-.5a.454.454 0 0 0 .054-.14c.172-.045.254-.176.326-.273l.036-.044c.127-.175.244-.342.362-.517a20.433 20.433 0 0 1 1.212-1.614.382.382 0 0 1 .109-.097c.253-.018.434-.14.56-.386l.028-.08.054-.052.86-.86.29-.29s.035-.043.054-.06a.204.204 0 0 0 .045-.062s.009 0 .036.026c.1.088.244 0 .29-.044l.117-.105c.172-.158.353-.316.516-.483a.354.354 0 0 0 .1-.272.254.254 0 0 0-.064-.158l.516-.535.262-.123c.525-.254.842-.667 1.086-1.044.262-.123.479-.298.66-.561.073-.106.172-.202.272-.299.054-.052.108-.105.154-.157.072-.08.144-.158.217-.246l.172-.193-.19-.185-.1.088v-.017c.172-.193.353-.395.534-.58.163-.175.344-.342.516-.508.108-.106.217-.202.316-.307.1-.097.19-.193.281-.29.126-.132.253-.263.389-.386.28-.272.543-.509.823-.737.326-.263.651-.526.977-.78.172-.133.344-.273.516-.405.09-.07.172-.14.262-.219l.082-.07.434.096-.154-.201c.226-.027.471-.132.643-.246.126-.079.334-.237.37-.439l.019-.105c.081-.053.162-.097.235-.14l.154-.088c.153-.088.298-.184.443-.272.136-.088.28-.176.425-.263.027-.018.064-.027.1-.035.045-.018.099-.027.154-.062.135-.079.262-.158.398-.237l.045-.026v.035l.045.132 2.181-.729.099-.052-.018-.07.398.052a1 1 0 0 0 .136.018c.181.026.371.061.561.026.325-.061.633.018.941.237.271.193.316.307.226.64-.045.167-.091.334-.127.5l-.081.334-.127.509a41.85 41.85 0 0 1-.353 1.334c-.117.403-.262.816-.416 1.228-.054.158-.127.316-.19.474-.063.158-.127.307-.181.465-.118.324-.235.658-.353.982-.154.448-.316.887-.479 1.334-.308.834-.625 1.64-.932 2.404a47.077 47.077 0 0 1-.814 1.904c-.136.299-.281.597-.426.895l-.271.553c-.018.035-.018.07-.018.105h-.036v.105s0 .053.009.08v.026s-.037.026-.055.044c-.045.035-.108.079-.144.14-.136.228-.263.474-.371.693-.091.176-.172.36-.263.535-.144.299-.289.606-.452.904-.29.553-.661 1.237-.823 1.992a.113.113 0 0 1-.019.052c-.027.07-.081.194.019.334a.35.35 0 0 1-.037.123.214.214 0 0 0-.135.088c-.046.07-.018.131 0 .192l-.082.167.181-.017v.044h-.172v.245c.009.088.018.176.009.255v.131c0 .123 0 .237-.018.343a.682.682 0 0 0 .127.614c.081.105.163.201.253.307h-.018l.027.939.236-.457c.126.193.316.334.579.448 0 0 .027.017.072.061 0 0 .009.026.009.035a.673.673 0 0 1-.018.123l-.045.28.199-.06.063-.018v.053l.081.044s.064.026.091.035c.018 0 .045.017.036 0 .054.079.1.158.154.236.054.088.099.167.154.246.181.255.416.448.814.65l.335.166-.127-.263c.262.088.516.079.769-.026.073-.027.145-.044.226-.062l.245.21s.054.053.108.053c.471.027.896-.157 1.249-.544l.018.08.163-.053s.081-.018.117-.044c.118-.07.236-.15.362-.22.208-.131.416-.263.633-.386.218-.131.453-.245.679-.36.091-.052.19-.096.281-.148.072-.036.144-.07.226-.106.181-.079.371-.166.524-.307.163-.149.281-.228.38-.245h.064l.027-.062.081-.158c.046-.088.073-.158.118-.193.172-.14.217-.307.127-.483l.172-.157.036-.114zM42.089 4.588c.362-.228 1.447-.86 1.845-1.044.28-.132-.506.386-.235.254l.217.035-2.19 1.132.363-.377zm-6.93 23.944c-.136-.079-.29-.158-.444-.236a9.86 9.86 0 0 0 1.647.386c-.398.043-.824.052-1.195-.15h-.009zm20.076-5.29c-.136.123-.19.35-.326.42-.127.071-.344.01-.48.071-.054.026-.117.053-.172.079.308-.237.643-.412.996-.597l-.018.018v.009zM86.086 7.976c-.054.044-.117.07-.18.105l-.11.07-.053.018c-.145.07-.28.149-.426.22-.072.034-.135.06-.208.096-.054.026-.108.043-.163.07l-.18.088c-.444.21-.887.447-1.34.658a1.33 1.33 0 0 0-.117.079.21.21 0 0 1-.063.043h-.019s-.009 0-.027-.017l-.163-.105-.018.105-.398.167-.018.035s-.018.026-.018.044v.017c-.29.053-.525.202-.751.342a2.351 2.351 0 0 1-.489.255c-.09.035-.19.07-.28.105.018-.026.036-.044.054-.07l.018-.018s.118 0 .172-.061c0 0 .027-.009.037-.018.09-.026.117-.096.135-.14 0-.009.018-.026.01-.018.243-.114.488-.245.732-.368.154-.08.299-.158.462-.237 0 0 .036.018.054.018l.072.017.054-.044.082-.079c.054-.052.1-.105.145-.131.226-.123.488-.272.723-.395.154-.08.299-.158.453-.237.036-.018.072-.035.117-.053.136-.061.28-.123.344-.254a.437.437 0 0 1 .28-.237h.145l-.506.368.543-.096c.217-.044.416-.132.597-.228.126-.062.244-.123.362-.158a.516.516 0 0 1-.073.061l.01-.017zm14.132 4.018c-.036.062-.09.114-.144.167-.027.026-.064.079-.09.105l-.046.035c-.118.123-.226.246-.344.369-.054.061-.117.114-.172.166l-.135.132-.154.15c-.371.36-.733.754-1.104 1.122a.368.368 0 0 0-.081.123.24.24 0 0 1-.046.07H97.848l-.208-.043.018.105-.344.307v.044l-.018.053v.017c-.271.15-.452.377-.633.597-.127.158-.245.307-.39.42a4.888 4.888 0 0 0-.243.203.257.257 0 0 1 .036-.088v-.026h.018s.117-.044.154-.123c0 0 .027-.018.036-.027.081-.052.081-.14.09-.193 0-.008.01-.035 0-.026.208-.202.398-.412.597-.623.127-.131.245-.263.371-.395h.127l.036-.07.054-.105c.037-.07.064-.14.1-.185.18-.201.389-.438.579-.64.127-.132.244-.263.37-.395.028-.035.064-.061.1-.096.109-.106.245-.22.254-.378.009-.158.09-.245.19-.333l.145-.044-.38.535.506-.28c.208-.114.362-.281.516-.44.099-.104.199-.201.308-.289-.019.027-.028.062-.046.088l.027-.009zm12.224-7.896a4.992 4.992 0 0 1-.652-.132l.588-.105c.163.052.398.096.597-.01.181-.087.281-.052.543.203.127.123.263.237.398.35l.091.08.018.096s-.064.026-.091.026c-.47-.342-.995-.43-1.502-.508h.01z"/>
    </g>
    <defs>
        <clipPath id="qklalkwe7a">
            <path fill="#fff" d="M0 0h140v29.578H0z"/>
        </clipPath>
    </defs>
</svg>
