<?xml version="1.0" encoding="UTF-8"?><svg id="Layer_1" xmlns="http://www.w3.org/2000/svg" viewBox="0 0 1387.98 1387.98"><defs><style>.cls-1{fill:#fffb31;}</style></defs><path class="cls-1" d="M1350.56,607.21l-417.81-72.02c-9.05-1.2-7.6-9.22,1.67-9.22l407.65-45.75c24.09,0,42.12-21.81,37.96-45.54C1336.76,187.71,1121.27,0,861.9,0H133.41C59.73,0,0,59.73,0,133.41V861.9c0,10.15,.29,20.24,.86,30.25,2.19,38.37,35.64,67.41,74.01,65.1,172.74-10.37,268.06-4.51,461.81-16.54,12.93-.8,15.38,13.29,2.68,15.83l-431.52,111.56c-31.42,6.28-46.81,41.97-30.01,69.26,92.6,150.36,258.71,250.61,448.26,250.61h728.49c73.68,0,133.41-59.73,133.41-133.41V649.93c0-21.61-16-39.87-37.42-42.72Z"/></svg>