<?xml version="1.0" encoding="UTF-8"?><svg id="Layer_1" xmlns="http://www.w3.org/2000/svg" viewBox="0 0 1390.78 1390.78"><defs><style>.cls-1{fill:#fffb31;}</style></defs><path class="cls-1" d="M1025.48,339.36l236.43-54.84c75.46-17.5,128.87-84.73,128.87-162.19h0C1390.78,54.77,1336.01,0,1268.45,0H264.2C118.28,0,0,118.28,0,264.2V789.95c0,106.47,98.55,185.58,202.5,162.55l180.67-40.02c26.74-5.92,37.7,32.86,11.81,41.8l-282.85,97.71C45.02,1075.18,0,1138.37,0,1209.37v59.09c0,67.56,54.77,122.33,122.33,122.33h1004.26c145.91,0,264.19-118.28,264.19-264.19V566.69c0-86.26-65.89-158.24-151.82-165.84l-210.49-18.63c-24.65-2.18-27.11-37.27-3-42.86Z"/></svg>