<?xml version="1.0" encoding="UTF-8"?><svg id="Layer_1" xmlns="http://www.w3.org/2000/svg" viewBox="0 0 1389.38 1389.38"><defs><style>.cls-1{fill:#fffb31;}</style></defs><path class="cls-1" d="M1010.98,365.22l280.92,72.3c49.38,12.71,97.49-24.58,97.49-75.57V151.82c0-83.85-67.97-151.82-151.82-151.82H151.82C67.97,0,0,67.97,0,151.82v484.25c0,108.75,70.24,205.05,173.8,238.27l387.11,124.17c21.03,6.75,13.71,38.14-8.14,34.89l-352.49-52.56C94.8,965.1,0,1046.81,0,1153.46v84.1c0,83.85,67.97,151.82,151.82,151.82H1237.56c83.85,0,151.82-67.97,151.82-151.82v-472.33c0-127.08-77.42-241.34-195.45-288.45l-194.1-77.47c-20.87-8.33-10.63-39.69,11.14-34.09Z"/></svg>