<?xml version="1.0" encoding="UTF-8"?><svg id="Layer_1" xmlns="http://www.w3.org/2000/svg" viewBox="0 0 1389.38 1389.38"><defs><style>.cls-1{fill:#fffb31;}</style></defs><path class="cls-1" d="M1389.38,221.38v-49.95c0-94.68-76.75-171.43-171.43-171.43H196.46C87.96,0,0,87.96,0,196.46v498.23H0v21.98H.88c-.88,215.5,346.58,279.91,505.91,279.91H171.43c-94.68,0-171.43,76.75-171.43,171.43v49.95c0,94.68,76.75,171.43,171.43,171.43h955.82c144.77,0,262.13-117.36,262.13-262.13v-410.58h-.88c.52-7.26,.88-14.58,.88-21.98h0c0-166.73-171.28-220.13-338.01-220.13,0,0,338.01-55.87,338.01-253.18Z"/></svg>