<?xml version="1.0" encoding="UTF-8"?><svg id="Layer_1" xmlns="http://www.w3.org/2000/svg" viewBox="0 0 1391.27 1391.27"><defs><style>.cls-1{fill:#fffb31;}</style></defs><path class="cls-1" d="M987.71,515.23c58.95,26.17,137.72,61.07,215.29,95.24,88.69,39.06,188.26-25.88,188.26-122.79v-149.87c0-186.57-151.24-337.81-337.81-337.81H337.81C151.24,0,0,151.24,0,337.81v81.24c0,190.1,117.49,360.42,295.21,427.92l134.58,51.12c11.95,4.54,6.89,22.46-5.67,20.08l-324.76-61.68C47.77,846.69,0,886.24,0,938.74v114.72c0,186.57,151.24,337.81,337.81,337.81h715.65c186.57,0,337.81-151.24,337.81-337.81h0c0-157.06-78.93-303.6-210.07-390.03l-201.79-132.99c-8.91-5.87-1.45-19.54,8.3-15.21Z"/></svg>