<svg width="601" height="601" viewBox="0 0 601 601" fill="none" xmlns="http://www.w3.org/2000/svg">
    <path d="m443.152 146.646 102.167-23.694C577.921 115.396 601 86.337 601 52.875 601 23.673 577.347 0 548.145 0H114.167C51.114 0 0 51.114 0 114.167v227.208c0 46.015 42.595 80.193 87.504 70.241l78.064-17.304c11.55-2.56 16.301 14.191 5.099 18.061L48.431 454.6C19.455 464.614 0 491.932 0 522.609v25.536C0 577.347 23.673 601 52.855 601h433.978C549.886 601 601 549.886 601 486.833V244.881c0-37.271-28.465-68.378-65.613-71.675l-90.965-8.048c-10.649-.942-11.713-16.096-1.29-18.533l.02.021z" fill="#FFFB31"/>
</svg>
