<svg width="599" height="599" viewBox="0 0 599 599" fill="none" xmlns="http://www.w3.org/2000/svg">
    <g clip-path="url(#j4kveu8una)">
        <path d="m582.864 262.043-180.32-31.086c-3.906-.511-3.272-3.988.716-3.988l175.923-19.735c10.389 0 18.181-9.408 16.381-19.654C576.892 81.008 483.9 0 371.969 0H57.571C25.769 0 0 25.769 0 57.57V371.97c0 4.377.123 8.733.368 13.048.94 16.566 15.38 29.082 31.945 28.101 74.545-4.479 115.694-1.943 199.299-7.138 5.583-.348 6.646 5.726 1.145 6.831l-186.23 48.142c-13.56 2.72-20.206 18.12-12.946 29.88 39.962 64.892 111.644 108.147 193.45 108.147h314.398c31.802 0 57.571-25.769 57.571-57.571V280.47c0-9.326-6.913-17.2-16.157-18.427h.021z" fill="#FFFB31"/>
    </g>
    <defs>
        <clipPath id="j4kveu8una">
            <path fill="#fff" d="M0 0h599v599H0z"/>
        </clipPath>
    </defs>
</svg>
